<svg width="64" height="64" viewBox="0 0 64 64" fill="none" xmlns="http://www.w3.org/2000/svg">
<rect x="0.5" y="0.5" width="63" height="63" rx="31.5" fill="white" stroke="#6A706E"/>
<path d="M26.6666 46.3333C27.403 46.3333 28 45.7364 28 45C28 44.2636 27.403 43.6667 26.6666 43.6667C25.9303 43.6667 25.3333 44.2636 25.3333 45C25.3333 45.7364 25.9303 46.3333 26.6666 46.3333Z" stroke="black" stroke-width="2" stroke-linecap="round" stroke-linejoin="round"/>
<path d="M41.3333 46.3333C42.0697 46.3333 42.6667 45.7364 42.6667 45C42.6667 44.2636 42.0697 43.6667 41.3333 43.6667C40.597 43.6667 40 44.2636 40 45C40 45.7364 40.597 46.3333 41.3333 46.3333Z" stroke="black" stroke-width="2" stroke-linecap="round" stroke-linejoin="round"/>
<path d="M18.7333 19.7333H21.4L24.9467 36.2933C25.0768 36.8998 25.4142 37.442 25.901 37.8265C26.3877 38.211 26.9932 38.4138 27.6133 38.4H40.6533C41.2602 38.399 41.8486 38.1911 42.3214 37.8105C42.7941 37.4298 43.1229 36.8994 43.2533 36.3067L45.4533 26.4H22.8267" stroke="black" stroke-width="2" stroke-linecap="round" stroke-linejoin="round"/>
</svg>
