<svg width="32" height="32" viewBox="0 0 32 32" fill="none" xmlns="http://www.w3.org/2000/svg">
<path d="M15.9998 2.66663C8.65183 2.66663 2.6665 8.65196 2.6665 16C2.6665 23.348 8.65183 29.3333 15.9998 29.3333C23.3478 29.3333 29.3332 23.348 29.3332 16C29.3332 8.65196 23.3478 2.66663 15.9998 2.66663ZM15.9998 5.33329C21.9067 5.33329 26.6665 10.0931 26.6665 16C26.6665 21.3526 22.7536 25.7506 17.6248 26.5312V19.1796H20.729L21.216 16.026H17.6248V14.302C17.6248 12.9914 18.0518 11.8281 19.2785 11.8281H21.2472V9.07548C20.9006 9.02881 20.169 8.92704 18.7863 8.92704C15.8983 8.92704 14.2056 10.4524 14.2056 13.927V16.026H11.2368V19.1796H14.2056V26.5052C9.16022 25.6544 5.33317 21.2936 5.33317 16C5.33317 10.0931 10.093 5.33329 15.9998 5.33329Z" fill="#F96815"/>
</svg>
