<svg width="32" height="32" viewBox="0 0 32 32" fill="none" xmlns="http://www.w3.org/2000/svg">
<path d="M27.4297 4.01567C26.9865 3.96867 26.5048 4.03788 26.0208 4.22921C25.4208 4.46521 16.0192 8.42009 7.25521 12.1094L4.35938 13.3282C3.23804 13.7828 2.67188 14.5223 2.67188 15.5183C2.67188 16.2156 2.967 17.1615 4.375 17.7188L9.26302 19.6771C9.68569 20.9451 10.6674 23.8893 10.9141 24.6719C11.0607 25.1359 11.4312 26.3048 12.3672 26.5782C12.5592 26.6435 12.7595 26.6771 12.9635 26.6771C13.5542 26.6771 13.9795 26.4022 14.1875 26.2422L17.2943 23.6146L21.0677 27.1042C21.213 27.2522 21.9823 28 23.0156 28C24.305 28 25.283 26.9267 25.487 25.8881C25.5976 25.3187 29.237 7.04946 29.237 7.05213C29.5636 5.5868 28.9763 4.82665 28.599 4.50265C28.2756 4.22599 27.8729 4.06267 27.4297 4.01567ZM26.5469 6.89588C26.0442 9.41588 23.304 23.171 22.888 25.1537L17.3724 20.0521L13.6302 23.2214L14.6667 19.1667C14.6667 19.1667 21.8167 11.9292 22.2474 11.5079C22.5941 11.1705 22.6667 11.0523 22.6667 10.9349C22.6667 10.7789 22.5864 10.6667 22.401 10.6667C22.2344 10.6667 22.008 10.8264 21.888 10.9011C20.3636 11.8515 13.8721 15.5497 10.6771 17.3672L6.04167 15.5157L8.29167 14.5704C14.0237 12.157 24.2322 7.85855 26.5469 6.89588Z" fill="#F96815"/>
</svg>
