<svg width="32" height="32" viewBox="0 0 32 32" fill="none" xmlns="http://www.w3.org/2000/svg">
<path d="M15.7411 1.23501C13.3706 1.26363 8.27431 1.65316 5.42385 4.26824C3.30354 6.36916 2.56323 9.47532 2.47646 13.3162C2.40446 17.1433 2.31769 24.3304 9.24539 26.2873V29.2679C9.24539 29.2679 9.202 30.4605 9.99031 30.7052C10.9614 31.0125 11.5143 30.095 12.4374 29.1092L14.1589 27.1624C18.8989 27.5565 22.5294 26.6482 22.9475 26.5135C23.9094 26.2061 29.3269 25.5138 30.2122 18.3258C31.1205 10.9024 29.77 6.22516 27.3322 4.10947H27.3174C26.5817 3.43193 23.6251 1.27747 17.0195 1.25347C17.0195 1.25347 16.5294 1.22024 15.7411 1.23409V1.23501ZM15.8223 3.32209C16.4952 3.31747 16.9042 3.34609 16.9042 3.34609C22.4952 3.36086 25.1638 5.04363 25.7934 5.61039C27.8463 7.36978 28.9042 11.5864 28.1297 17.7839C27.394 23.7932 23.0002 24.1735 22.1869 24.4329C21.8408 24.5436 18.6432 25.3319 14.6149 25.0725C14.6149 25.0725 11.6149 28.6929 10.6771 29.6252C10.5285 29.7885 10.3549 29.8365 10.2442 29.8125C10.0854 29.7738 10.0374 29.5772 10.0466 29.3076L10.0752 24.3609C4.19985 22.7362 4.546 16.6061 4.60877 13.4039C4.68077 10.2018 5.28169 7.58209 7.07062 5.80793C9.47892 3.6304 13.8063 3.33686 15.8205 3.32209H15.8223ZM16.2654 6.52332C16.217 6.52283 16.1691 6.53192 16.1242 6.55006C16.0794 6.5682 16.0386 6.59503 16.0042 6.62901C15.9698 6.66299 15.9424 6.70345 15.9237 6.74804C15.905 6.79264 15.8954 6.8405 15.8952 6.88886C15.8952 7.09563 16.0632 7.25901 16.2654 7.25901C17.1806 7.24161 18.0902 7.40556 18.9418 7.74143C19.7934 8.0773 20.57 8.57844 21.2269 9.21593C22.5682 10.5184 23.2217 12.2685 23.2466 14.5569C23.2466 14.759 23.41 14.927 23.6168 14.927V14.9122C23.7142 14.9125 23.8078 14.8742 23.8772 14.8057C23.9465 14.7373 23.9859 14.6441 23.9869 14.5467C24.0317 13.4696 23.8571 12.3947 23.4735 11.3872C23.09 10.3797 22.5056 9.4607 21.7558 8.68609C20.2946 7.25809 18.4429 6.5224 16.2654 6.5224V6.52332ZM11.3998 7.36978C11.1386 7.3316 10.8721 7.38405 10.6448 7.51839H10.6254C10.0976 7.82775 9.6222 8.21875 9.21677 8.67686C8.87985 9.0664 8.69708 9.46055 8.64908 9.83993C8.62046 10.0661 8.63985 10.2922 8.70723 10.5082L8.73123 10.523C9.11062 11.6381 9.60631 12.7107 10.2118 13.7205C10.9919 15.1393 11.9518 16.4514 13.0678 17.6242L13.1011 17.6722L13.1537 17.711L13.1869 17.7498L13.2257 17.783C14.4028 18.9023 15.7181 19.8667 17.1395 20.6529C18.7642 21.5372 19.75 21.9553 20.3417 22.1289V22.1381C20.5152 22.1907 20.6731 22.2147 20.8318 22.2147C21.3361 22.1778 21.8135 21.973 22.1878 21.6332C22.6439 21.2276 23.0305 20.7503 23.3325 20.2199V20.2107C23.6158 19.6772 23.5198 19.1722 23.1109 18.8307C22.292 18.1149 21.4064 17.479 20.4663 16.9319C19.8368 16.5904 19.1971 16.7972 18.9377 17.1433L18.3848 17.8402C18.1014 18.1864 17.5863 18.1384 17.5863 18.1384L17.5715 18.1476C13.7306 17.1664 12.706 13.2775 12.706 13.2775C12.706 13.2775 12.658 12.7485 13.0134 12.479L13.7057 11.9215C14.0371 11.6519 14.2678 11.0132 13.9125 10.3827C13.3691 9.44131 12.7347 8.55552 12.0183 7.73809C11.8617 7.54538 11.642 7.41426 11.398 7.36793L11.3998 7.36978ZM16.9042 8.4664C16.414 8.4664 16.414 9.2067 16.9088 9.2067C17.5183 9.21659 18.1198 9.34649 18.6791 9.58898C19.2384 9.83147 19.7443 10.1818 20.1682 10.6199C20.5548 11.0464 20.8518 11.5461 21.0418 12.0895C21.2317 12.6329 21.3107 13.2089 21.274 13.7833C21.2757 13.8805 21.3154 13.9732 21.3846 14.0415C21.4537 14.1099 21.5469 14.1484 21.6442 14.1489L21.6589 14.1682C21.7569 14.1675 21.8506 14.1283 21.9199 14.059C21.9891 13.9898 22.0284 13.896 22.0291 13.7981C22.0623 12.3313 21.6063 11.1009 20.7118 10.115C19.8128 9.12916 18.5583 8.57624 16.9568 8.4664H16.9042ZM17.5106 10.4565C17.0057 10.4418 16.9863 11.1969 17.4866 11.2116C18.7032 11.2744 19.294 11.8892 19.3715 13.1538C19.3732 13.2498 19.4124 13.3413 19.4807 13.4087C19.5491 13.4762 19.6411 13.5142 19.7371 13.5147H19.7518C19.8012 13.5126 19.8496 13.5007 19.8943 13.4796C19.939 13.4586 19.9791 13.4288 20.0122 13.3921C20.0453 13.3555 20.0707 13.3125 20.087 13.2659C20.1034 13.2193 20.1102 13.1699 20.1072 13.1205C20.0205 11.4719 19.1214 10.5433 17.5254 10.4575H17.5106V10.4565Z" fill="#F96815"/>
</svg>
